<?xml version="1.0" encoding="utf-8"?>
<!-- Generator: Adobe Illustrator 25.4.1, SVG Export Plug-In . SVG Version: 6.00 Build 0)  -->
<svg version="1.1" id="Layer_1" xmlns="http://www.w3.org/2000/svg" xmlns:xlink="http://www.w3.org/1999/xlink" x="0px" y="0px"
	 viewBox="0 0 267.8 57.4" style="enable-background:new 0 0 267.8 57.4;" xml:space="preserve">
<style type="text/css">
	.st0{fill:#FFFFFF;}
	.st1{fill:#F05323;}
</style>
<g>
	<path class="st0" d="M62.8,11.9h7.4c5.3,0,8,2.6,8,8.5v2c0,5.5-2,9.1-8.3,9.1h-2v13.7h-5.1C62.8,45.2,62.8,11.9,62.8,11.9z
		 M68,27.3h1.4c3.2,0,3.8-1.9,3.8-5.1v-1.6c0-2.4-0.4-4.4-3.3-4.4H68V27.3z"/>
	<path class="st0" d="M83.9,36.3l-1.2,8.9h-5.2l5.4-33.3h7.3l5.6,33.3h-5.4l-1.3-8.9C89.1,36.3,83.9,36.3,83.9,36.3z M88.4,31.6
		c-0.8-5.7-1.5-11-1.9-14.8h-0.2c-0.1,2.7-1.1,9.9-1.8,14.8C84.5,31.6,88.4,31.6,88.4,31.6z"/>
	<path class="st0" d="M98.9,16.7h-5.3v-4.8h15.8v4.8H104v28.5h-5.1V16.7z"/>
	<path class="st0" d="M116.3,30.3v14.9h-5.1V11.9h7.1c5.1,0,8.1,2,8.1,8v1.3c0,5.1-2.1,6.4-3.4,6.9c1.9,0.9,3.1,2.3,3.1,6.8
		c0,2.8-0.1,8.2,0.3,10.2h-5c-0.4-2-0.3-7.5-0.3-9.9c0-4.1-0.5-5-3.5-5L116.3,30.3L116.3,30.3z M116.3,26.1h1.2c2.7,0,3.7-1,3.7-4.6
		v-1.2c0-2.6-0.5-4.1-3.4-4.1h-1.5C116.3,16.2,116.3,26.1,116.3,26.1z"/>
	<path class="st0" d="M134.8,11.9v33.3h-5.1V11.9H134.8z"/>
	<path class="st0" d="M153.3,35.3v1.3c0,3.8-0.6,9.1-7.7,9.1c-6.2,0-7.5-3.9-7.5-8.9V20c0-5.1,2.3-8.5,7.6-8.5
		c6.2,0,7.4,4.1,7.4,8.8v1.5H148v-2.1c0-2.2-0.5-3.5-2.3-3.5s-2.3,1.2-2.3,3.5v17.6c0,2.2,0.4,3.9,2.4,3.9c1.9,0,2.3-1.5,2.3-3.9v-2
		H153.3z"/>
	<path class="st0" d="M155.8,11.9h5v15h0.1c1.3-3.3,4.1-10.5,6-15h5.7l-6.1,12.9l6.4,20.4h-5.6l-4.3-15l-2.1,4.5v10.5h-5L155.8,11.9
		L155.8,11.9z"/>
	<path class="st0" d="M192.3,30H185v10.5h8.4l-0.6,4.7h-12.9V11.9h12.9v4.8h-7.7v8.6h7.3L192.3,30L192.3,30z"/>
	<path class="st0" d="M201,36.3l-1.2,8.9h-5.2l5.4-33.3h7.3l5.6,33.3h-5.5l-1.3-8.9C206.1,36.3,201,36.3,201,36.3z M205.5,31.6
		c-0.8-5.7-1.5-11-1.9-14.8h-0.2c-0.1,2.7-1.1,9.9-1.8,14.8C201.6,31.6,205.5,31.6,205.5,31.6z"/>
	<path class="st0" d="M230.2,45.2h-4c-0.1-0.6-0.2-1.8-0.3-2.5c-0.9,2.2-2.9,3-5,3c-4.9,0-6.5-3.5-6.5-9.2V20.9
		c0-5.4,2.1-9.4,7.9-9.4c7,0,7.7,5.1,7.7,8.7v1.1h-5.1V20c0-1.8-0.3-3.8-2.6-3.8c-1.9,0-2.7,1.3-2.7,4v17c0,2.7,0.8,4.1,2.6,4.1
		c2.2,0,2.8-1.9,2.8-5.3v-4.9h-2.9v-4.4h8.1V45.2z"/>
	<path class="st0" d="M238.8,36.3l-1.2,8.9h-5.2l5.4-33.3h7.3l5.6,33.3h-5.4l-1.3-8.9C244,36.3,238.8,36.3,238.8,36.3z M243.3,31.6
		c-0.8-5.7-1.5-11-1.9-14.8h-0.2c-0.1,2.7-1.1,9.9-1.8,14.8C239.4,31.6,243.3,31.6,243.3,31.6z"/>
	<path class="st0" d="M257.7,30.3v14.9h-5.1V11.9h7.1c5.1,0,8.1,2,8.1,8v1.3c0,5.1-2.1,6.4-3.4,6.9c1.9,0.9,3.1,2.3,3.1,6.8
		c0,2.8-0.1,8.2,0.3,10.2h-5c-0.4-2-0.3-7.5-0.3-9.9c0-4.1-0.5-5-3.5-5L257.7,30.3L257.7,30.3z M257.7,26.1h1.2c2.7,0,3.7-1,3.7-4.6
		v-1.2c0-2.6-0.5-4.1-3.4-4.1h-1.5L257.7,26.1L257.7,26.1z"/>
</g>
<g>
	<path class="st1" d="M36.8,26.6v5H33v-1.5c0-0.4-0.3-0.6-0.7-0.6c-0.4,0-0.7,0.3-0.7,0.6v8.8c0,0.4,0.3,0.6,0.7,0.6
		s0.7-0.3,0.7-0.6v-6h4.5l0,0l0,0c0.4,0,0.7-0.3,0.7-0.6v-5.6c0-0.4-0.3-0.6-0.7-0.6C37.1,25.9,36.8,26.2,36.8,26.6z"/>
	<path class="st1" d="M48.1,22.8c0.4,0,0.7-0.3,0.7-0.6v-6.9c0-0.4-0.3-0.6-0.7-0.6h-4V8c0-0.4-0.3-0.6-0.7-0.6h-5.3V0.7
		c0-0.4-0.3-0.6-0.7-0.6H27.1c-0.4,0-0.7,0.3-0.7,0.6v5.6h-3.5V2.4c0-0.4-0.3-0.6-0.7-0.6h-11c-0.4,0-0.7,0.3-0.7,0.6v5.2H5.8
		c-0.4,0-0.7,0.3-0.7,0.6v6.5H0.8c-0.4,0-0.7,0.3-0.7,0.6v6.6c0,0.4,0.3,0.6,0.7,0.6h4.6v2.6c0,0.4,0.3,0.6,0.7,0.6
		c0.4,0,0.7-0.3,0.7-0.6v-5.8c0-0.4-0.3-0.6-0.7-0.6c-0.4,0-0.7,0.3-0.7,0.6v1.9h-4v-5.4h4.3c0.4,0,0.7-0.3,0.7-0.6V8.7h4.7
		c0.4,0,0.7-0.3,0.7-0.6V2.9h3.9V12H11c-0.4,0-0.7,0.3-0.7,0.6v8.7c0,0.4,0.3,0.6,0.7,0.6s0.7-0.3,0.7-0.6v-8.1h3.9v12.1
		c0,0.4,0.3,0.6,0.7,0.6c0.4,0,0.7-0.3,0.7-0.6v-2h3.6v6.5h-4.4c-0.4,0-0.7,0.3-0.7,0.6v1.1h-4.1v-5c0-0.4-0.3-0.6-0.7-0.7l0,0
		c-0.4,0-0.7,0.3-0.7,0.6v2.9H1.4v-4.9c0-0.4-0.3-0.6-0.7-0.6S0,24.1,0,24.4V30c0,0.4,0.3,0.6,0.7,0.6H10v1.5c0,0.2,0.1,0.3,0.2,0.5
		c0.1,0.1,0.3,0.2,0.5,0.2h5.1v6c0,0.4,0.3,0.6,0.7,0.6c0.4,0,0.7-0.3,0.7-0.6V31h3.6v10.8h-9.3v-5.5c0-0.4-0.3-0.6-0.7-0.6H6.4v-5
		c0-0.4-0.3-0.6-0.7-0.6S5,30.4,5,30.7v5.7C5,36.8,5.3,37,5.7,37h4.4v5.5c0,0.4,0.3,0.6,0.7,0.6h10.8c0.4,0,0.7-0.3,0.7-0.6V39h3.5
		v5.6c0,0.4,0.3,0.6,0.7,0.6h10.9c0.4,0,0.7-0.3,0.7-0.6v-7.9h4.3c0.4,0,0.7-0.3,0.7-0.6v-4.2h5c0.4,0,0.7-0.3,0.7-0.6v-6.5
		c0-0.4-0.3-0.6-0.7-0.6h-4.5v-4.6c0-0.4-0.3-0.6-0.7-0.6s-0.7,0.3-0.7,0.6v1.6h-4.3v-5.3h9.6v6.3C47.4,22.5,47.7,22.8,48.1,22.8z
		 M42.1,22.5v4.3c0,0.4,0.3,0.6,0.7,0.6s0.7-0.3,0.7-0.6v-1.4h3.7v5.2h-5c-0.4,0-0.7,0.3-0.7,0.6v4.2h-4.1c-0.4,0-0.7,0.3-0.7,0.6
		v7.9h-9.3v-5.6c0-0.4-0.3-0.6-0.7-0.6h-4.3V21.6v-3c0-0.4-0.3-0.6-0.7-0.6c-0.4,0-0.7,0.3-0.7,0.6v3V22h-3.6v-9.4V2.9h4v3.9
		c0,0.4,0.3,0.6,0.7,0.6h4.3v27.1c0,0.4,0.3,0.6,0.7,0.6c0.4,0,0.7-0.3,0.7-0.6v-9.1h3.7v1.4c0,0.4,0.3,0.6,0.7,0.6s0.7-0.3,0.7-0.6
		v-6.7c0-0.4-0.3-0.6-0.7-0.6c-0.4,0-0.7,0.3-0.7,0.6V24h-3.7v-7.5h4c0.4,0,0.7-0.3,0.7-0.6v-3.6h3.7v9.5c0,0.4,0.3,0.6,0.7,0.6h5.2
		L42.1,22.5L42.1,22.5z M37,11h-5.2c-0.4,0-0.7,0.3-0.7,0.6v3.6h-3.2l-0.1-14h8.8v6.7c0,0.4,0.3,0.6,0.7,0.6h5.3v6h-4.9v-2.9
		C37.8,11.3,37.5,11,37,11z"/>
	<path class="st1" d="M32.2,3.2c-0.4,0-0.7,0.3-0.7,0.6v4.5c0,0.4,0.3,0.6,0.7,0.6s0.7-0.3,0.7-0.6V3.8C33,3.5,32.6,3.2,32.2,3.2z"
		/>
	<path class="st1" d="M21.6,9.3c-0.4,0-0.7,0.3-0.7,0.6V11v3.8v0.5c0,0.4,0.3,0.6,0.7,0.6c0.4,0,0.7-0.3,0.7-0.6v-0.5V11V9.9
		C22.4,9.6,22,9.3,21.6,9.3z"/>
</g>
<path class="st1" d="M35.1,48H11.9c-0.4,0-0.7,0.4-0.7,0.8c0,0.4,0.3,0.8,0.7,0.8H35c0.4,0,0.7-0.4,0.7-0.8
	C35.8,48.4,35.5,48,35.1,48z"/>
<path class="st1" d="M32,50.6H13.6c-0.4,0-0.7,0.4-0.7,0.8c0,0.4,0.3,0.8,0.7,0.8H32c0.4,0,0.7-0.4,0.7-0.8
	C32.7,50.9,32.4,50.6,32,50.6z"/>
<path class="st1" d="M30.1,53.1H18.4c-0.4,0-0.7,0.4-0.7,0.8s0.3,0.8,0.7,0.8h11.8c0.4,0,0.7-0.4,0.7-0.8
	C30.8,53.5,30.5,53.1,30.1,53.1z"/>
<path class="st1" d="M26.4,55.8h-5.1c-0.4,0-0.7,0.4-0.7,0.8s0.3,0.8,0.7,0.8h5.1c0.4,0,0.7-0.4,0.7-0.8
	C27.1,56.1,26.8,55.8,26.4,55.8z"/>
</svg>
